HIERARCHY
ROOT root
{
	OFFSET 0.000000 0.000000 0.000000
	CHANNELS 6 Xposition Yposition Zposition Zrotation Yrotation Xrotation
	JOINT lhip
	{
		OFFSET 0.058581 -0.082280 -0.017664
		CHANNELS 3 Zrotation Yrotation Xrotation
		JOINT lknee
		{
			OFFSET 0.043451 -0.386469 0.008037
			CHANNELS 3 Zrotation Yrotation Xrotation
			JOINT lankle
			{
				OFFSET -0.014790 -0.426874 -0.037428
				CHANNELS 3 Zrotation Yrotation Xrotation
				JOINT ltoe
				{
					OFFSET 0.041054 -0.060286 0.122042
					CHANNELS 3 Zrotation Yrotation Xrotation
					End Site
					{
						OFFSET 0.000000 0.000000 0.000000
					}
				}
			}
		}
	}
	JOINT rhip
	{
		OFFSET -0.060310 -0.090513 -0.013543
		CHANNELS 3 Zrotation Yrotation Xrotation
		JOINT rknee
		{
			OFFSET -0.043257 -0.383688 -0.004843
			CHANNELS 3 Zrotation Yrotation Xrotation
			JOINT rankle
			{
				OFFSET 0.019056 -0.420046 -0.034562
				CHANNELS 3 Zrotation Yrotation Xrotation
				JOINT rtoe
				{
					OFFSET -0.034840 -0.062106 0.130323
					CHANNELS 3 Zrotation Yrotation Xrotation
					End Site
					{
						OFFSET 0.000000 0.000000 0.000000
					}
				}
			}
		}
	}
	JOINT lowerback
	{
		OFFSET 0.004439 0.124404 -0.038385
		CHANNELS 3 Zrotation Yrotation Xrotation
		JOINT upperback
		{
			OFFSET 0.004488 0.137956 0.026820
			CHANNELS 3 Zrotation Yrotation Xrotation
			JOINT chest
			{
				OFFSET -0.002265 0.056032 0.002855
				CHANNELS 3 Zrotation Yrotation Xrotation
				JOINT lowerneck
				{
					OFFSET -0.013390 0.211636 -0.033468
					CHANNELS 3 Zrotation Yrotation Xrotation
					JOINT upperneck
					{
						OFFSET 0.010113 0.088937 0.050410
						CHANNELS 3 Zrotation Yrotation Xrotation
						End Site
						{
							OFFSET 0.000000 0.000000 0.000000
						}
					}
				}
				JOINT lclavicle
				{
					OFFSET 0.071702 0.114000 -0.018898
					CHANNELS 3 Zrotation Yrotation Xrotation
					JOINT lshoulder
					{
						OFFSET 0.122921 0.045205 -0.019046
						CHANNELS 3 Zrotation Yrotation Xrotation
						JOINT lelbow
						{
							OFFSET 0.255332 -0.015649 -0.022946
							CHANNELS 3 Zrotation Yrotation Xrotation
							JOINT lwrist
							{
								OFFSET 0.265709 0.012698 -0.007375
								CHANNELS 3 Zrotation Yrotation Xrotation
								End Site
								{
									OFFSET 0.000000 0.000000 0.000000
								}
							}
						}
					}
				}
				JOINT rclavicle
				{
					OFFSET -0.082954 0.112472 -0.023707
					CHANNELS 3 Zrotation Yrotation Xrotation
					JOINT rshoulder
					{
						OFFSET -0.113228 0.046853 -0.008472
						CHANNELS 3 Zrotation Yrotation Xrotation
						JOINT relbow
						{
							OFFSET -0.260127 -0.014369 -0.031269
							CHANNELS 3 Zrotation Yrotation Xrotation
							JOINT rwrist
							{
								OFFSET -0.269108 0.006794 -0.006027
								CHANNELS 3 Zrotation Yrotation Xrotation
								End Site
								{
									OFFSET 0.000000 0.000000 0.000000
								}
							}
						}
					}
				}
			}
		}
	}
}
MOTION
Frames: 14
Frame Time: 0.033333
1.193828 0.635551 0.984573 -78.938911 0.584282 89.556327 2.111999 -8.508310 -14.030886 -4.247909 -8.029879 33.093712 10.150157 13.682982 -27.652450 0.000000 -0.000000 0.000000 3.088491 1.723148 -5.093147 5.643195 4.268624 13.023428 -4.299045 -12.432487 -14.102235 0.000000 -0.000000 0.000000 10.238386 1.044249 1.880275 0.948471 -0.562938 0.184530 -2.703476 1.920217 -0.543418 0.165533 19.375390 10.575517 -0.067592 26.423157 9.060692 -33.209343 -4.353476 9.640414 -57.576178 1.449264 9.783707 11.195150 -29.546499 7.354282 11.136183 -14.838308 -9.419516 26.629156 4.835814 12.479068 54.989029 0.575305 6.325628 -17.467282 26.517662 -7.637520 0.282767 12.101207 -15.468979 
1.193777 0.634325 0.984798 -79.084470 0.746893 89.685354 2.434732 -8.325566 -15.502126 -4.695077 -7.634480 33.488456 10.192236 13.051353 -28.745804 0.000000 -0.000000 0.000000 3.097824 1.652159 -4.644758 5.851026 5.017866 11.921964 -4.168324 -12.890969 -13.865369 0.000000 -0.000000 0.000000 10.254091 0.969045 2.474560 1.100046 -0.691517 -0.736999 -2.415832 1.978346 -0.273668 -0.766108 16.401473 10.134643 0.410173 23.842568 10.819819 -33.048505 -3.894028 9.432408 -57.887621 1.391834 9.255854 10.775699 -29.514865 7.790629 11.153714 -14.809547 -9.895299 26.643528 5.042902 12.411913 54.474259 0.571544 5.927706 -17.095504 26.413860 -7.427226 -0.471197 12.005388 -15.316297 
1.193380 0.632795 0.984815 -79.281088 0.978017 90.015729 2.707857 -8.039448 -16.961646 -4.689491 -7.554671 32.613770 10.113967 12.895892 -29.234821 0.000000 -0.000000 0.000000 3.090277 1.488992 -4.335255 5.973932 5.313861 10.722183 -3.926944 -12.667806 -13.605187 0.000000 -0.000000 0.000000 10.268259 1.021801 2.686278 1.410284 -0.839378 -1.319983 -2.340367 1.977905 0.005834 -1.329807 13.810811 10.104420 0.301426 20.089552 11.851012 -33.003267 -3.372515 9.381601 -58.044116 1.002563 9.400641 10.688503 -29.296173 7.634537 11.118976 -14.712499 -10.341506 26.810612 4.827202 12.123305 53.815724 0.906644 5.772323 -16.727929 26.142220 -7.141857 -1.088159 11.992244 -15.122345 
1.191904 0.630180 0.984634 -79.594675 1.325548 90.717803 3.068136 -7.739782 -18.795974 -4.004459 -7.316766 30.288320 10.106102 12.939221 -29.166550 0.000000 -0.000000 0.000000 3.032367 1.265927 -4.000213 6.219158 5.769967 8.910696 -3.642279 -12.272454 -13.138484 0.000000 -0.000000 0.000000 10.240399 1.061562 2.683111 1.691037 -1.125615 -1.844610 -2.318754 1.882147 0.303493 -2.070304 10.787916 10.118571 0.148270 16.107620 11.980459 -32.768711 -2.824155 9.456250 -58.356737 0.587964 9.593245 10.731676 -29.159128 7.804271 10.910642 -14.635876 -11.064688 26.897265 4.631392 11.870237 53.478469 1.552363 5.606090 -16.511061 25.900840 -6.731759 -1.540957 12.010027 -15.239709 
1.190530 0.628439 0.984333 -79.785528 1.575162 91.261830 3.337318 -7.524480 -19.957852 -3.566371 -7.245034 28.717621 10.173790 12.624619 -28.907839 0.000000 -0.000000 0.000000 3.032407 1.123111 -3.904683 6.346556 6.056079 7.852331 -3.510318 -12.052099 -12.840071 0.000000 -0.000000 0.000000 10.160250 1.066001 2.594656 1.837978 -1.363511 -2.170497 -2.303139 1.793168 0.433691 -2.396879 9.265432 10.143301 0.200413 13.921783 12.180045 -32.661302 -2.612256 9.568979 -58.557622 0.426899 9.664434 10.841200 -28.992403 7.769955 11.035170 -14.527399 -11.111628 26.923567 4.592234 11.879460 53.463828 1.885526 5.475680 -16.523025 25.962477 -6.699234 -1.539005 11.962812 -15.285193 
1.188140 0.625937 0.983587 -80.146209 1.953292 92.074461 3.784734 -7.245195 -21.496691 -3.140925 -7.307708 26.576485 10.126941 12.049306 -28.526548 0.000000 -0.000000 0.000000 3.078396 1.005003 -3.930150 6.489271 6.414216 6.629573 -3.325142 -11.732832 -12.540607 0.000000 -0.000000 0.000000 9.946171 1.087878 2.750591 1.987333 -1.620590 -2.731567 -2.211083 1.746375 0.434516 -2.727770 7.435924 10.047642 0.363959 11.509894 12.388273 -32.452723 -2.399215 9.613282 -58.825633 0.329490 9.674298 10.780289 -28.680980 7.793418 11.300975 -14.468471 -11.313302 26.779842 4.478895 11.583161 53.770855 1.962870 5.275465 -16.542135 26.326528 -6.645218 -1.700659 11.962061 -15.339377 
1.185166 0.623201 0.982614 -80.634111 2.375427 92.910740 4.361658 -7.195410 -23.045352 -2.889927 -7.342632 24.856117 10.109139 11.683676 -28.227642 0.000000 -0.000000 0.000000 3.150562 1.026595 -4.042949 6.624006 6.673752 5.592478 -3.150792 -11.360307 -12.309196 0.000000 -0.000000 0.000000 9.595851 1.124355 3.004275 2.131585 -1.883942 -3.222875 -2.082462 1.695483 0.434624 -2.774220 6.316072 9.830549 0.580066 9.577131 12.663148 -32.287830 -2.285597 9.657994 -59.051430 0.226939 9.662872 10.806830 -28.376110 7.409793 11.457739 -14.395548 -11.631320 26.681001 4.325791 11.253027 54.071619 2.091761 5.161432 -16.544943 26.746880 -6.498785 -1.917141 12.032315 -15.444791 
1.181536 0.620002 0.981535 -81.247108 2.898533 93.742918 5.079922 -7.239667 -24.586165 -2.680129 -7.347035 23.750225 10.127354 11.387769 -27.903555 0.000000 -0.000000 0.000000 3.339433 1.143907 -4.197176 6.735699 7.024163 4.709522 -3.065904 -11.050161 -12.093713 0.000000 -0.000000 0.000000 9.170208 1.155151 3.185991 2.285361 -2.160742 -3.392587 -1.969758 1.557351 0.570185 -2.680324 5.796729 9.407901 0.778038 8.372295 12.617017 -32.109470 -2.187066 9.613681 -59.203933 -0.026034 9.680636 10.934379 -28.218334 6.972209 11.558772 -14.165301 -12.006500 26.677185 4.243414 10.999826 54.282233 2.473272 5.287432 -16.644943 27.197094 -6.333974 -1.840738 12.091267 -15.673328 
1.176968 0.616390 0.980199 -82.041246 3.497357 94.556330 5.902918 -7.219395 -25.905956 -2.421485 -7.233968 22.907019 10.248415 11.030832 -27.192899 0.000000 -0.000000 0.000000 3.569055 1.215260 -4.295873 6.853328 7.515189 3.851615 -2.979629 -10.672504 -11.834780 0.000000 -0.000000 0.000000 8.600748 1.258387 3.459742 2.410949 -2.392754 -3.369638 -1.771981 1.470104 0.701116 -2.574694 5.594337 8.794756 1.064851 7.722478 12.414050 -31.843823 -2.288595 9.483007 -59.379756 -0.285327 9.676355 10.973268 -28.127036 6.777176 11.854877 -13.862060 -12.215525 26.647267 4.288554 10.726536 54.555119 2.645470 5.362865 -16.761561 27.829685 -6.166895 -1.714798 12.156387 -15.753153 
1.169415 0.611455 0.978008 -83.159034 4.432134 95.490063 6.988486 -6.908323 -27.085486 -2.081900 -7.150684 22.203128 10.456328 10.691064 -25.668984 0.000000 -0.000000 0.000000 3.953214 1.151213 -3.980270 7.016286 8.283333 2.353958 -2.852177 -10.032399 -11.344922 0.000000 -0.000000 0.000000 7.759103 1.491462 3.692876 2.571814 -2.723264 -2.947903 -1.504097 1.386670 0.809935 -2.293806 5.747447 8.176556 1.615135 7.189509 12.005343 -31.503786 -2.626676 9.355058 -59.481991 -0.682042 9.749700 10.938764 -28.154434 6.628133 12.619396 -13.261683 -12.268489 26.644195 4.453693 10.616061 54.916109 2.785887 5.410282 -16.964685 28.769212 -5.991476 -1.409659 12.105261 -16.008170 
1.162730 0.607353 0.976253 -84.037544 5.190792 96.111567 7.735542 -6.503574 -27.561114 -1.965602 -6.857519 22.251633 10.433672 10.589604 -24.033485 0.000000 -0.000000 0.000000 4.250970 1.080926 -3.482811 7.134646 8.856631 0.984527 -2.849100 -9.451063 -10.924257 0.000000 -0.000000 0.000000 7.062798 1.742318 3.711662 2.679357 -2.947477 -2.467166 -1.313735 1.379262 0.817556 -2.055372 5.895941 7.944022 2.153271 6.855846 11.658516 -31.296003 -2.955771 9.341426 -59.406067 -0.871118 9.829259 10.884324 -28.442354 6.574194 13.139826 -12.865093 -12.294540 26.709274 4.592245 10.709133 55.078754 2.701926 5.356712 -17.022673 29.520945 -5.734968 -1.020839 12.025267 -16.210991 
1.152856 0.601270 0.973395 -85.333481 6.230686 96.948961 8.882130 -6.153316 -27.860717 -2.198485 -5.936761 22.797896 11.062465 10.542330 -22.750023 0.000000 -0.000000 0.000000 4.508526 1.501406 -2.422319 7.322356 10.152058 -1.548275 -2.702821 -9.620585 -10.052980 0.000000 -0.000000 0.000000 5.884113 2.236556 3.213726 2.789794 -3.127356 -1.172367 -0.887131 1.072309 0.547102 -2.297660 5.206898 7.894535 2.965463 7.380712 11.229670 -31.206591 -3.162562 9.296676 -58.803108 -1.162002 10.148992 10.471578 -29.055064 6.301574 14.031264 -12.482668 -12.324713 26.783831 5.131439 9.543565 55.165739 1.446102 7.454968 -17.820656 29.553083 -7.173191 -0.134091 12.280913 -15.566719 
1.142207 0.596129 0.970601 -86.344109 7.102281 97.869533 9.615911 -5.319373 -28.331207 -2.347305 -5.350446 23.377494 11.819418 10.468468 -22.548106 0.000000 -0.000000 0.000000 4.830362 1.222143 -1.865995 7.166499 10.488055 -3.046722 -2.255255 -8.365701 -9.653215 0.000000 -0.000000 0.000000 4.456755 2.750294 2.892964 2.959264 -3.362395 -1.009268 -0.842251 1.470695 1.120401 -0.897780 5.810842 7.785967 3.695359 5.638545 10.687440 -30.640202 -3.520605 9.437983 -58.467728 -1.986644 10.250071 9.999817 -29.456532 7.116058 14.460400 -12.149832 -12.629384 26.876941 4.461409 10.900163 55.460546 2.310118 5.711665 -16.949899 30.879011 -4.241495 0.154326 12.115080 -16.687872 
1.131675 0.591324 0.969627 -87.286798 7.762964 98.385732 10.412793 -4.468567 -28.430413 -2.831087 -4.545227 23.957982 11.702664 10.294827 -23.129699 0.000000 -0.000000 0.000000 5.303386 1.478976 -1.351351 6.630349 10.785142 -3.839939 -1.613726 -7.917126 -9.633414 0.000000 -0.000000 0.000000 2.423323 3.269174 3.045333 2.925641 -3.492961 -0.349672 -0.490357 1.495323 1.010916 0.012770 5.298678 8.302098 4.695469 5.085877 9.529347 -30.151949 -3.861762 9.432704 -57.595355 -2.701022 10.431539 9.560411 -29.964757 6.770813 14.864553 -12.088730 -12.483918 26.968852 4.396880 10.114374 56.209905 1.783936 6.331062 -16.996731 30.559391 -4.685211 0.894863 12.142474 -15.228661 
